<?xml version="1.0" encoding="utf-8"?>
<!-- Generator: Adobe Illustrator 26.0.1, SVG Export Plug-In . SVG Version: 6.00 Build 0)  -->
<svg version="1.1" xmlns="http://www.w3.org/2000/svg" xmlns:xlink="http://www.w3.org/1999/xlink" x="0px" y="0px"
	 viewBox="0 0 288 288" style="enable-background:new 0 0 288 288;" xml:space="preserve">
<style type="text/css">
	.st0{fill:#00FF18;}
	.st1{fill:#00FF18;stroke:#FFFFFF;stroke-width:8;stroke-miterlimit:10;}
</style>
<g id="SvgjsSvg1028" xmlns:svgjs="http://svgjs.com/svgjs">
	<g id="SvgjsG1030">
		<path class="st0" d="M146.3,41.4c24.5,0.7,45.3,11.9,61.9,34.4c11.2,15.1,17.9,33.1,20.7,53.2c0.4,3.2,0.9,6.4,1.2,9.6
			c0.3,2.7-1.5,4.8-3.6,4.4c-1.5-0.2-2.5-1.7-2.8-3.9c-0.9-6.1-1.7-12.4-2.9-18.4C213.2,85,189.2,57.5,159.9,51
			c-40.8-9-79.9,23.4-89,73.8c-0.3,1.6-0.5,3.2-0.8,4.8c-0.4,2.3-2.1,3.6-3.9,3.1c-1.6-0.4-2.7-2.5-2.4-4.6
			c2.7-19.2,9.2-36.1,19.5-50.8c6-8.6,12.9-15.8,20.8-21.5c10.8-7.8,22.4-12.5,34.9-13.7C141.5,41.7,143.9,41.6,146.3,41.4
			L146.3,41.4z"/>
		<path class="st0" d="M55.5,145.8c0,8.3,1.1,16.4,2.1,24.6c1.4,11.7-1.3,22.1-7.6,30.8c-1.3,1.8-3.2,1.9-4.6,0.3
			c-1.3-1.6-1.4-3.9-0.1-5.7c3.8-5.3,6.1-11.5,6.2-18.6c0.1-3.5-0.4-7-0.9-10.5c-4.2-31.7,0.6-61.1,14.8-87.9
			c13-24.5,30.9-40.9,53.5-49.2c13.1-4.9,26.5-6.1,40.1-3.9c2,0.3,3.3,2.1,3.1,4.4s-1.7,3.7-3.8,3.5c-4.8-0.3-9.6-1.2-14.4-0.8
			c-31.1,1.7-55.7,18.6-73.3,50.9c-8.5,15.6-13.2,33.2-14.6,52C55.7,139.2,55.7,142.5,55.5,145.8L55.5,145.8z M165.4,175.9
			c-0.3,39-9.8,74-28.9,105.1c-1.4,2.3-3.3,2.7-4.9,1.2c-1.5-1.5-1.6-3.9-0.2-6.1c11.8-19,19.9-40.3,24.2-63.8
			c3.5-19.1,4.3-38.4,2.1-58c-0.4-3.8-0.9-7.6-1.5-11.4c-1-6.2-6.1-10.5-11.4-9.6c-5,0.8-9.1,6.8-8.7,12.9c0.2,3,0.8,5.9,1.2,8.9
			c1.6,12.5,1.8,25,0.4,37.6c-0.4,3.8-1,7.6-1.5,11.4c-0.4,2.6-2,4.1-3.8,3.6c-1.9-0.5-3-2.6-2.5-5.3c2.7-15.7,2.9-31.6,0.9-47.5
			c-0.3-2.2-0.8-4.3-1-6.5c-0.9-8.2,2.5-16.6,8.4-20.6c5.9-4.1,13.4-3.4,18.5,1.9c3.7,3.8,5.7,8.7,6.4,14.5
			C164.4,154.7,165.5,165.2,165.4,175.9L165.4,175.9z M245.9,176c0,10.8-0.5,21.5-1.5,32.3c-0.1,0.6-0.1,1.4-0.3,1.9
			c-0.5,2-2.2,3.1-3.8,2.5s-2.6-2.3-2.4-4.5c0.4-5.8,0.9-11.6,1.3-17.5c0.7-12.8,0.4-25.6-0.5-38.3c-0.8-11.2-2.1-22.3-4.2-33.2
			c-3.1-16.4-9.2-31.6-17.7-44.7c-11.3-17.3-25.5-29.5-42.4-36.4c-1.4-0.6-2.4-1.6-2.6-3.5c-0.4-3.1,1.9-5.3,4.4-4.2
			c7.1,2.9,13.8,6.5,20.1,11.4c21.7,16.6,36.1,40,43.4,70.5c2.3,9.5,3.5,19.2,4.5,29C245.3,152.9,245.9,164.4,245.9,176L245.9,176z"
			/>
		<path class="st0" d="M105.3,173.8c0-5.4-1.1-12.5-1.9-19.6c-2.2-19.4,2.6-35.9,14.3-49c8.9-9.9,19.5-14.2,31.5-13.4
			c2.2,0.1,3.6,1.8,3.5,4.2c-0.1,2.4-1.5,3.9-3.8,3.8c-12.1-0.6-22.4,4.3-30.4,15.8c-7.9,11.4-10.8,24.7-8.4,39.7
			c1.4,9,1.9,18,1.4,27c-1.5,26.4-9.8,49-24.6,67.8c-1.3,1.6-2.6,3.1-3.9,4.5c-1.5,1.7-3.5,1.6-4.7-0.1c-1.3-1.8-1.1-4.2,0.5-5.9
			c10-10.9,17.3-24.2,21.8-39.7C103.7,198.2,105.3,187.1,105.3,173.8L105.3,173.8z M185.8,175.8c0-13.2-1-26.3-3.2-39.3
			c-2.3-13.5-8.3-23.7-17.8-30.7c-1.3-1-2.2-2.2-2.1-4.1c0.2-3.1,2.7-4.6,4.9-3.1c4.6,3.3,8.8,7.5,12.2,12.7
			c5,7.5,8.1,16.1,9.5,25.7c2.2,14.7,3.3,29.5,2.9,44.4c-0.8,34.9-8.2,67.3-22.2,97.5c-0.8,1.7-1.8,2.9-3.4,2.6
			c-2.4-0.2-3.6-3.4-2.4-6.1c2.2-5.1,4.4-10,6.4-15.2c7.2-18.7,11.9-38.4,13.9-59c0.8-8.3,1.1-16.7,1.7-25.1L185.8,175.8
			L185.8,175.8z M146.6,15.9c-12.3,0.1-24.3,2.6-35.9,8c-19.3,8.9-35.2,23.6-47.6,44l-0.6,1c-1.3,2.2-3.2,2.6-4.8,1.3
			c-1.5-1.4-1.7-3.9-0.4-5.9c1.9-3.1,3.8-6.2,5.9-9.2c16.3-23,36.5-37.7,60.6-44.2c9-2.4,18.3-3.4,27.5-2.9
			c15.1,0.8,29.5,5.5,43.2,13.7c1.1,0.6,1.9,1.5,2.2,3.1c0.2,1.6-0.1,3-1.1,4c-1.1,1.1-2.3,1.2-3.6,0.4c-2.3-1.3-4.5-2.6-6.8-3.8
			c-12.2-6.2-25-9.3-38.1-9.5h-0.5V15.9z M219.1,171.3c0,33.7-4.1,61.7-12.3,88.8c-0.7,2.4-2,3.5-3.7,3.2c-2.3-0.4-3.2-3-2.4-5.9
			c2.1-8,4.4-15.9,6.1-24.1c4.6-21.4,6.4-43.3,5.8-65.5c-0.4-14.8-1.7-29.6-4.8-43.9c-1.9-8.9-5.2-17-9.5-24.5
			c-1.3-2.3-1-4.9,0.8-6.2c1.5-1.2,3.2-0.6,4.5,1.5c3.4,5.9,6.2,12.5,8.4,19.2c2.7,8.6,4,17.5,5.1,26.5
			C218.4,152.3,219.1,164.1,219.1,171.3L219.1,171.3z M85,174.3c-0.5,23.9-7.4,42.3-21,56.6c-1.2,1.3-2.4,1.7-3.8,0.8
			c-1.3-0.7-2-2.1-1.7-3.8c0.2-1.2,0.8-2.4,1.5-3.2c6-6.2,10.7-13.6,13.9-22.5c4.6-12.6,5.5-25.6,3.6-39.2
			c-4.8-33.9,3.5-62.2,24.3-84.8c1.7-1.8,3.6-1.7,4.9,0.2c1.2,1.8,0.9,4.2-0.7,5.9c-12,12.6-19.5,28.3-22.4,47.5
			c-1.5,10.1-1.3,20.4,0.4,30.5C84.5,166.9,84.7,171.4,85,174.3L85,174.3z M152.1,174.5c-0.4,40.1-10.6,74-30.8,103.2
			c-1.4,2-3.3,2.3-4.7,0.7c-1.5-1.6-1.5-3.9-0.2-6l0.2-0.3c13.7-19.8,22.7-42.4,26.8-67.9c3-18.7,2.9-37.4,0-56.1
			c-0.5-3.2-0.1-4.5,1.6-5.6c1.7-1.2,4,0,4.4,2.3c0.8,5,1.5,10,1.9,15C151.8,165.3,151.9,170.7,152.1,174.5L152.1,174.5z
			 M256.9,142.4c0,1.9,0,4,0,6.1c0,2.5-1.4,4.2-3.2,4.2c-1.9,0-3.2-1.7-3.1-4.3c0.1-8.3-0.4-16.7-1.6-24.9
			c-3.5-23.2-11.2-44-23.5-62c-5.4-7.9-11.6-14.9-18.4-21c-0.7-0.6-1.4-1.4-1.9-2.3c-0.8-1.6-0.4-3.5,0.7-4.8
			c1.1-1.3,2.8-1.5,4.1-0.2c4.1,4.1,8.4,8,12.2,12.5c16.7,19.5,27.4,43.5,32.3,71.5C255.9,125.3,256.6,133.7,256.9,142.4
			L256.9,142.4z"/>
		<path class="st0" d="M178.8,169.5c0,1.9,0,3.9,0,5.8c0,2.5-1.4,4.2-3.3,4.2c-1.8,0-3.1-1.7-3.1-4.2c-0.1-11.7-1-23.3-2.9-34.9
			c-2.2-13.7-11.6-23.7-22.8-24c-11.2-0.2-21,9.3-23.5,23c-0.5,2.6-2,4-3.8,3.7c-1.9-0.4-3-2.6-2.5-5.4c1.8-9.4,5.8-16.9,12.1-22.5
			c11.4-10.1,27.4-8.8,37.6,3.1c5.4,6.2,8.5,14,9.6,23.1C177.5,150.7,178.5,160,178.8,169.5L178.8,169.5z M125.2,173.9
			c-0.5,34.9-9.8,63.4-28.3,87.2c-0.8,1-1.6,1.9-2.4,2.9c-1.6,1.9-3.5,2-4.9,0.2c-1.3-1.7-1-4,0.4-6c3.5-4.9,7.2-9.4,10.4-14.6
			c9.9-16.4,15.7-34.9,17.6-55.2c0.9-9.2,0.8-18.4-0.2-27.6c-0.3-2.4,0.9-4.3,2.6-4.8c1.9-0.3,3.5,1.1,3.7,3.6
			C124.7,165.1,125,170.4,125.2,173.9z M35.7,142c0-18.2,4-38.8,11.9-58.2c1.1-2.7,3-3.6,4.8-2.2c1.5,1.2,1.9,3.4,1,5.6
			c-2.7,6.8-5,13.7-6.8,20.9c-5,20.5-5.8,41.2-2.6,62.2c0.3,2.1,0.8,4.2,1.2,6.4c0.5,2.7-0.4,4.8-2.3,5.4c-1.9,0.5-3.4-0.8-4-3.5
			C36.8,167.8,35.7,156.8,35.7,142L35.7,142z M145,58.2c17.9,0.3,32.5,6.7,45.3,19.3c0.7,0.7,1.4,1.9,1.7,3c0.4,1.6-0.3,3.4-1.5,4.1
			c-1.2,0.8-2.5,0.6-3.8-0.4c-2.8-2.4-5.4-5.1-8.4-7.2c-18.9-13.2-38.4-14.4-58.3-3.8c-2.7,1.4-5.1-0.3-5-3.6c0.1-1.7,0.8-2.9,2-3.6
			c6.1-3.5,12.5-5.8,19.2-7C139.7,58.6,143.1,58.4,145,58.2z M178.1,197.2c-1,6.7-1.8,13.3-3,20c-2.3,13.3-5.9,26-10.5,38.3
			c-3.5,9.2-7.4,18-12,26.4c-0.9,1.6-2,2.4-3.5,2c-1.3-0.3-2.3-1.4-2.4-3.1c-0.1-1.3,0.3-2.6,0.8-3.7c2.9-6.3,6.1-12.4,8.8-18.8
			c7.3-17.4,12.1-35.9,14.5-55.5c0.3-2.1,0.5-4.2,0.7-6.3c0.2-2.3,1.7-4,3.5-3.8C176.7,192.9,177.9,194.7,178.1,197.2L178.1,197.2z
			 M232.5,173c0.2,22.8-2.1,45.5-6.7,67.6c-0.4,1.9-1.1,3.4-2.7,3.7c-2.5,0.5-4.3-2.1-3.6-5.4c0.9-5,2.1-9.8,2.7-14.9
			c1.2-9.2,2.3-18.5,3.1-27.8c1-11.8,0.9-23.7,0.4-35.5c-0.1-2.4,1.1-4.3,2.9-4.4c1.9-0.2,3.4,1.5,3.5,4
			C232.3,164.5,232.4,168.8,232.5,173L232.5,173z M71.5,174.9c-0.4,17.2-5.2,30.8-14.9,41.8c-2.3,2.5-5.2,1.7-5.8-1.6
			c-0.3-1.7,0.2-3.1,1.3-4.2c6.4-7,10.5-15.7,12.2-26.2c1-6.3,0.8-12.7-0.1-19.1c-0.7-5-1.1-10-1.4-15.1c-0.2-2.7,1.2-4.5,3.1-4.6
			c1.9,0,3,1.8,3.3,4.4c0.5,5.6,1.2,11.2,1.8,16.8C71.2,170,71.4,172.9,71.5,174.9z M128.1,220.4c2.4,0,3.8,2.9,2.8,5.7
			c-1.7,5-3.5,9.9-5.5,14.8c-4.8,11.5-11,21.8-18.2,31.1c-1,1.4-2.3,1.8-3.7,1.2c-1.3-0.5-2.1-1.9-2-3.5c0.1-1.2,0.6-2.6,1.2-3.5
			c6.6-8.7,12.4-18.3,16.8-28.9c1.9-4.5,3.5-9.4,5.3-14C125.6,221.4,126.6,220.4,128.1,220.4z M71.1,244.7c-2,0-3.1-1-3.6-2.4
			c-0.6-1.7-0.2-3.3,0.9-4.6c2.7-3.2,5.5-6.3,7.9-9.7c4.8-6.8,8.5-14.5,11.1-22.8c0.6-2.1,1.8-3.1,3.2-3c2.4,0.2,3.8,2.7,2.9,5.5
			c-1.2,3.6-2.5,7.1-3.9,10.5c-4.1,9.5-9.6,17.7-16.2,24.8C72.5,243.8,71.5,244.3,71.1,244.7L71.1,244.7z M181.6,270.8
			c0.1-0.3,0.2-1.1,0.4-1.7c4.7-12.1,8.5-24.8,11.3-37.8c0.4-1.7,1.2-3,2.6-3.2c1.4-0.3,2.7,0.2,3.2,1.8c0.4,1.1,0.6,2.6,0.3,3.8
			c-1.8,7.3-3.6,14.6-5.7,21.8c-1.8,5.9-3.9,11.6-6,17.3c-0.7,1.9-2.1,2.6-3.6,2.2C182.7,274.5,181.6,273,181.6,270.8L181.6,270.8z"
			/>
		<g>
			<path class="st0" d="M201,208.6c1.6-11.7,2.3-23.7,2.4-34.5c-0.1-15.9-1.3-30.6-3.6-45.2c-5.1-31.6-27.3-55.6-53.1-56.7
				c-19.1-0.8-35,7.9-47,26.5c-10.8,16.7-14.7,36-11.6,57.1c1.2,8.3,1.8,16.7,1.2,25.2c-0.2,2.5,1,4.5,2.8,4.6
				c2,0.2,3.4-1.3,3.6-3.9c0.6-8.3,0.5-16.7-0.9-24.9c-2-11.6-1.6-23,1.5-34.3c8.2-29.3,31.2-46.7,55.7-41.6
				c18.8,3.9,31.9,17.4,39.1,39.4c2.6,7.8,3.4,16.3,4.3,24.5c2.3,20.8,2,41.5-0.7,62.2c-0.3,2.5,0.8,4.5,2.7,5
				C199.1,212.6,200.6,211.1,201,208.6L201,208.6z"/>
			<path class="st0" d="M218.6,118c1.3,6,2,12.3,2.9,18.4c0.3,2.2,1.3,3.6,2.8,3.9c2.1,0.3,3.8-1.7,3.6-4.4
				c-0.3-3.3-0.8-6.4-1.2-9.6C223.9,106,217.2,88.1,206,73c-16.7-22.5-37.4-33.7-61.9-34.4c-2.4,0.2-4.8,0.3-7.3,0.5
				c-12.5,1.3-24.1,5.9-34.9,13.7C93.9,58.5,87,65.7,81,74.3C70.7,89,64.2,106,61.5,125.1c-0.3,2.2,0.7,4.2,2.4,4.6
				c1.8,0.5,3.5-0.7,3.9-3.1c0.3-1.6,0.5-3.2,0.8-4.8c9.1-50.5,48.3-82.9,89.2-73.8C187,54.7,211,82,218.6,118L218.6,118z"/>
			<path class="st0" d="M53.6,132.8c1.4-18.9,6.1-36.3,14.6-52c17.6-32.3,42.2-49.1,73.4-50.9c4.8-0.3,9.6,0.5,14.4,0.8
				c2.1,0.1,3.6-1.3,3.8-3.5c0.2-2.3-1.1-4.1-3.1-4.4C121.8,17.3,84.8,35.1,63.1,76c-24.9,46.9-13.8,87.4-14,98.3
				c-0.1,7.1-2.4,13.3-6.2,18.6c-1.3,1.8-1.2,4.2,0.1,5.7c1.3,1.6,3.3,1.5,4.6-0.3C62.8,177.2,51.2,165.2,53.6,132.8L53.6,132.8z
				 M160.8,141.2c-0.7-5.8-2.7-10.8-6.4-14.5c-5.1-5.2-12.6-6-18.5-1.9s-9.3,12.5-8.4,20.6c0.2,2.2,0.7,4.4,1,6.5
				c2,15.9,1.8,31.7-0.9,47.5c-0.5,2.6,0.6,4.8,2.5,5.3c1.8,0.4,3.4-1,3.8-3.6c0.6-3.8,1.1-7.6,1.5-11.4c1.3-12.6,1.1-25.1-0.4-37.6
				c-0.4-3-1-5.9-1.2-8.9c-0.4-6.1,3.7-12,8.7-12.9c5.4-0.8,10.4,3.3,11.4,9.6c0.6,3.8,1.1,7.6,1.5,11.4c2.1,19.4,1.4,38.8-2.2,58
				c-4.3,23.4-12.4,44.7-24.2,63.8c-1.4,2.2-1.3,4.6,0.2,6.1c1.6,1.6,3.5,1.1,4.9-1.2c19-31.1,28.6-66,28.9-105.1
				C163.1,162.3,162.1,151.8,160.8,141.2L160.8,141.2z M237.3,109.5c-10-41.7-34.8-70.3-63.5-81.9c-2.5-1-4.8,1.3-4.4,4.2
				c0.2,1.8,1.2,2.9,2.6,3.5c31.5,13,53.1,44.6,60.1,81c6.8,35.2,5.1,65.9,3.4,88.9c-0.2,2.2,0.8,4,2.4,4.5c1.6,0.5,3.3-0.6,3.8-2.5
				c0.7-2.6,3.6-34.8,0-68.9C240.8,128.7,239.6,119,237.3,109.5z"/>
			<path class="st0" d="M107.7,152.3c-2.4-14.9,0.5-28.3,8.4-39.7c8-11.5,18.3-16.5,30.4-15.7c2.3,0.1,3.7-1.3,3.8-3.8
				c0.1-2.4-1.2-4.1-3.5-4.2c-11.9-0.7-22.6,3.4-31.5,13.4c-11.7,13.1-16.5,29.6-14.3,49c0.8,7.2,1.9,14.3,1.9,19.6
				c0,13.3-1.6,24.4-4.7,35.1c-4.6,15.5-11.9,28.8-21.8,39.7c-1.6,1.7-1.8,4.2-0.5,5.9c1.2,1.7,3.2,1.8,4.7,0.1
				c1.4-1.5,2.7-3,3.9-4.5c14.9-18.8,23.2-41.4,24.6-67.8C109.6,170.3,109.2,161.3,107.7,152.3L107.7,152.3z M186.9,134
				c-1.4-9.5-4.5-18.2-9.5-25.7c-3.4-5.1-7.5-9.4-12.2-12.7c-2.2-1.6-4.7,0.1-4.9,3.1c-0.1,2,0.8,3.2,2.1,4.1
				c9.5,7,15.5,17.2,17.8,30.7c2.2,13,3.2,26.1,3.2,39.3h0.3c-0.5,8.3-0.9,16.8-1.7,25.1c-2,20.6-6.7,40.3-13.8,59
				c-2,5.2-4.3,10.1-6.4,15.2c-1.2,2.7,0,5.9,2.4,6.1c1.6,0.1,2.6-1,3.4-2.6c13.9-30.2,21.3-62.6,22.2-97.5
				C190.2,163.5,189.1,148.7,186.9,134L186.9,134z M55.4,67.2c1.6,1.5,3.4,1,4.8-1.3c21.8-35.8,52.1-52.7,84.1-53h0.5
				c18.1,0.3,30.6,5.2,45,13.3c1.3,0.7,2.5,0.6,3.6-0.4c1.7-1.7,1.8-5.3-1.1-7c-13.7-8.2-28-12.9-43.2-13.7
				c-34.3-1.9-68.7,15.4-94,56.2C53.7,63.4,53.9,65.9,55.4,67.2L55.4,67.2z M209.5,111.1c-2.2-6.9-5-13.3-8.4-19.2
				c-1.2-2.1-2.9-2.6-4.5-1.5c-1.8,1.4-2.1,3.8-0.8,6.2c4.3,7.5,7.6,15.6,9.5,24.5c3.1,14.4,4.4,29,4.8,43.9
				c0.7,22.2-1.2,44-5.8,65.5c-1.8,8.1-4,16.1-6.1,24.1c-0.8,3,0.2,5.5,2.4,5.9c1.6,0.3,2.9-0.8,3.7-3.2
				c8.2-27.1,12.3-55.2,12.3-88.8c0-7.2-0.7-19-2.1-30.7C213.5,128.6,212.2,119.6,209.5,111.1L209.5,111.1z M82.6,171.3
				c-0.3-2.9-0.5-7.4-1.2-11.8c-1.6-10.1-1.9-20.3-0.4-30.5c2.8-19.2,10.4-35.1,22.4-47.5c1.6-1.7,1.9-4.1,0.7-5.9
				c-1.2-1.9-3.2-2.1-4.9-0.2c-20.8,22.6-29.1,50.9-24.3,84.8c1.9,13.6,1,26.6-3.6,39.2c-3.2,8.9-8,16.3-13.9,22.5
				c-0.7,0.7-1.3,2-1.5,3.2c-0.3,1.7,0.5,3.1,1.7,3.8c1.4,0.8,2.7,0.3,3.8-0.8C75.3,213.5,82.2,195.2,82.6,171.3L82.6,171.3z
				 M148.9,156.9c-0.4-5.1-1.2-10-1.9-15c-0.4-2.3-2.7-3.5-4.4-2.3c-1.7,1.1-2,2.5-1.6,5.6c2.9,18.7,2.9,37.4,0,56.1
				c-4.1,25.7-13.1,48.3-26.8,67.9c-0.1,0.1-0.2,0.2-0.2,0.3c-1.4,2.1-1.3,4.4,0.2,6c1.4,1.5,3.4,1.3,4.7-0.7
				c20.2-29.2,30.4-63.1,30.8-103.2C149.5,167.8,149.4,162.3,148.9,156.9L148.9,156.9z M219.8,42.7c-3.8-4.4-8.1-8.3-12.2-12.5
				c-1.3-1.3-2.9-1.1-4.1,0.2c-1.1,1.2-1.5,3.2-0.7,4.8c1.4,3,9.4,7.6,20.2,23.3c16.8,24.4,25.4,55,25.1,86.9c0,2.5,1.3,4.2,3.1,4.3
				c1.9,0,3.2-1.6,3.3-4.2C255.1,109.5,243.9,70.9,219.8,42.7L219.8,42.7z"/>
			<path class="st0" d="M126.7,112.2c-6.3,5.6-10.4,13.1-12.1,22.5c-0.5,2.7,0.5,5,2.5,5.4c1.9,0.4,3.3-1.1,3.8-3.7
				c2.5-13.6,12.3-23.2,23.5-23c11.3,0.2,20.7,10.1,22.8,24c1.8,11.5,2.8,23.1,2.9,34.9c0,2.4,1.3,4.1,3.1,4.2
				c1.9,0,3.2-1.7,3.3-4.2c0-1.9,0-3.9,0-5.8c-0.3-9.4-1.3-18.8-2.5-28.1c-1.2-9.1-4.2-16.8-9.6-23.1
				C154.1,103.5,138.1,102.2,126.7,112.2L126.7,112.2z M121.9,156.8c-0.2-2.5-1.8-3.9-3.7-3.6c-1.8,0.3-2.9,2.3-2.6,4.8
				c1,9.2,1.1,18.4,0.2,27.6c-1.9,20.4-7.7,38.9-17.6,55.2c-3.1,5.2-6.9,9.8-10.4,14.6c-1.4,2-1.7,4.3-0.4,6
				c1.3,1.8,3.2,1.7,4.9-0.2c0.8-1,1.6-1.9,2.4-2.9c18.5-23.9,27.8-52.4,28.3-87.2C122.6,167.5,122.3,162.2,121.9,156.8L121.9,156.8
				z M42.9,173.7c-5.6-30.7-3.7-60,8.2-89.5c0.9-2.2,0.5-4.4-1-5.6c-1.8-1.4-3.7-0.4-4.8,2.2c-12.3,30.3-15.1,63.1-8.7,94.7
				c0.5,2.6,2.1,4.1,4,3.5C42.5,178.6,43.4,176.5,42.9,173.7L42.9,173.7z M187.9,74.5c-12.8-12.7-27.4-19.1-45.3-19.3
				c-1.9,0.2-5.3,0.4-8.7,1.1c-6.7,1.2-13,3.5-19.2,7c-1.2,0.7-1.9,1.9-2,3.6c-0.1,3.3,2.3,5,5,3.6C137.6,60,157.1,61,176,74.2
				c2.9,2,5.6,4.8,8.4,7.2c1.2,1.1,2.6,1.3,3.8,0.4c1.1-0.8,1.9-2.5,1.5-4.1C189.3,76.4,188.7,75.4,187.9,74.5L187.9,74.5z
				 M172.8,214.2c1.1-6.7,2-13.3,3-20c-0.2-2.5-1.3-4.3-3.2-4.5c-1.7-0.2-3.2,1.5-3.5,3.8c-0.2,2.1-0.4,4.2-0.7,6.3
				c-2.4,19.4-7.1,38-14.5,55.5c-2.7,6.4-5.9,12.5-8.8,18.8c-0.5,1.1-0.8,2.4-0.8,3.7c0.1,1.7,1.1,2.6,2.4,3.1
				c1.6,0.4,2.7-0.4,3.5-2c4.6-8.3,8.5-17.2,12-26.4C166.9,240.3,170.5,227.5,172.8,214.2L172.8,214.2z M226.2,153.3
				c-1.8,0.2-3,2.1-2.9,4.4c1,21.3,0.6,42.7-6.2,78.2c-0.6,3.3,1.1,5.9,3.6,5.4c1.6-0.3,2.3-1.9,2.7-3.7c4.6-22.1,6.9-44.8,6.7-67.6
				c-0.1-4.2-0.2-8.5-0.4-12.7C229.6,154.8,228.1,153.1,226.2,153.3L226.2,153.3z M69.2,171.9c-0.2-2-0.4-4.9-0.6-7.7
				c-0.6-5.6-1.2-11.2-1.8-16.8c-0.2-2.6-1.4-4.4-3.3-4.4c-1.9,0-3.3,1.9-3.1,4.6c0.4,5.1,0.7,10.1,1.4,15.1
				c0.9,6.4,1.2,12.8,0.1,19.1c-1.7,10.5-5.8,19.1-12.2,26.2c-1,1.2-1.6,2.4-1.3,4.2c0.6,3.3,3.5,4.1,5.8,1.6
				C64,202.9,68.8,189.1,69.2,171.9L69.2,171.9z M128.6,223.3c1-2.9-0.5-5.7-2.8-5.7c-1.5,0-2.5,1-3.1,2.9c-1.7,4.8-3.3,9.5-5.2,14
				c-4.5,10.7-10.2,20.2-16.8,28.9c-0.7,0.8-1.1,2.2-1.2,3.5c-0.1,1.6,0.7,3,2,3.5c1.4,0.6,2.6,0.2,3.7-1.2
				c7.2-9.3,13.4-19.6,18.2-31.1C125.1,233.3,126.8,228.2,128.6,223.3L128.6,223.3z M87.2,215.1c1.5-3.4,2.7-7,3.9-10.5
				c0.9-2.7-0.5-5.3-2.9-5.5c-1.4-0.1-2.5,0.8-3.2,3c-2.6,8.3-6.3,16.1-11.1,22.8c-2.5,3.5-5.3,6.5-7.9,9.7c-1.2,1.4-1.5,3-0.9,4.6
				c0.5,1.5,1.6,2.4,3.6,2.4c0.5-0.3,1.4-1,2.2-1.8C77.6,233,83.1,224.7,87.2,215.1L87.2,215.1z M193.6,225.2
				c-1.4,0.3-2.2,1.5-2.6,3.2c-2.8,13-6.6,25.7-11.3,37.8c-0.2,0.6-0.3,1.4-0.4,1.7c0,2.2,1,3.8,2.5,4.2c1.5,0.4,3-0.4,3.6-2.2
				c2-5.7,4.2-11.4,6-17.3c2.1-7.2,3.9-14.5,5.7-21.8c0.3-1.2,0.1-2.6-0.3-3.8C196.3,225.4,195,224.8,193.6,225.2z"/>
		</g>
		<g>
			<path class="st0" d="M150.1,78.7c11.5,2.4,20.9,8.5,28.1,17.9c-6.9-8.1-15.7-13.3-26.3-15.5c-24.5-5.1-47.5,12.5-55.7,41.6
				c-3.1,11.3-3.5,22.7-1.5,34.3c1.4,8.2,1.5,16.6,0.9,24.9c-0.2,2.6-1.6,4.1-3.6,3.9c-1.2-0.1-2.2-1.1-2.6-2.5
				c0.2,0.1,0.5,0.2,0.8,0.2c1.9,0.2,3.4-1.3,3.6-3.9c0.6-8.3,0.6-16.7-0.9-24.9c-2-11.6-1.6-23,1.5-34.3
				C102.6,91.1,125.6,73.6,150.1,78.7z M203.3,174c-0.1,10.9-0.7,22.7-2.3,34.5c-0.4,2.5-1.9,4-3.7,3.7c-1.2-0.3-2.1-1.2-2.5-2.5
				c0.2,0.1,0.4,0.2,0.7,0.2c1.8,0.3,3.3-1.1,3.7-3.7c1.6-11.8,2.3-23.7,2.4-34.5c-0.1-15.9-1.3-30.6-3.6-45.2
				c-2.1-13.2-7.3-25.1-14.5-34.6c8.2,9.7,14,22.6,16.3,36.9C202.1,143.4,203.3,158.1,203.3,174L203.3,174z"/>
			<path class="st0" d="M155.9,45.9c16.2,3.6,30.9,13.7,41.9,28c-11-13.4-25-22.4-40.1-25.8C116.8,39,77.6,71.5,68.5,122
				c-0.3,1.6-0.5,3.2-0.8,4.8c-0.4,2.3-2.1,3.6-3.9,3.1c-1-0.3-1.8-1.3-2.2-2.4c0.1,0.1,0.2,0.1,0.4,0.2c1.8,0.5,3.5-0.7,3.9-3.1
				c0.3-1.6,0.5-3.2,0.8-4.8C75.8,69.3,115,36.8,155.9,45.9L155.9,45.9z M224.3,140.2c-1.2-0.2-2-1.1-2.5-2.4
				c0.2,0.1,0.4,0.2,0.7,0.2c2.1,0.3,3.8-1.7,3.6-4.4c-0.3-3.3-0.8-6.4-1.2-9.6c-2.8-20.2-9.5-38.1-20.7-53.2
				c-0.5-0.7-1-1.4-1.6-2.1c1.2,1.4,2.3,2.9,3.4,4.3c11.2,15.1,17.9,33.1,20.7,53.2c0.4,3.2,0.9,6.4,1.2,9.6
				C228.2,138.5,226.4,140.6,224.3,140.2z"/>
			<path class="st0" d="M159.8,27.3c-0.2,2.3-1.7,3.7-3.8,3.6c-4.8-0.3-9.6-1.2-14.4-0.8C110.4,31.9,85.8,48.7,68.2,81
				C59.7,96.5,55,114,53.6,132.8c-0.2,3.4-0.3,6.7-0.4,10c0,8.3,1.2,16.4,2.1,24.5c1.4,11.7-1.3,22.1-7.6,30.8
				c-1.3,1.8-3.3,1.9-4.6,0.3c-0.4-0.4-0.6-1-0.8-1.5c1.2,0.6,2.6,0.2,3.6-1.1c6.3-8.9,9.1-19.2,7.6-30.8c-1-8.1-2.1-16.3-2.1-24.5
				c0.1-3.4,0.2-6.8,0.4-10c1.4-18.9,6.1-36.3,14.7-52c17.5-32.3,42.2-49.1,73.4-50.9c4.8-0.2,9.6,0.5,14.4,0.8
				c2.1,0.1,3.6-1.3,3.8-3.6c0.1-0.6,0-1.3-0.2-1.8C159.2,23.9,159.9,25.4,159.8,27.3L159.8,27.3z M127.7,202.3
				c0.2,0.1,0.4,0.1,0.6,0.2c1.8,0.4,3.4-1,3.8-3.7c0.6-3.8,1.1-7.6,1.5-11.4c1.3-12.6,1.1-25.1-0.4-37.6c-0.4-3-1-5.9-1.2-8.9
				c-0.4-6.1,3.7-12,8.7-12.9c3.9-0.6,7.6,1.4,9.7,4.9c-2.1-2-5-3.1-7.9-2.5c-5,0.8-9.1,6.8-8.7,12.9c0.2,3,0.8,5.9,1.2,8.9
				c1.6,12.5,1.8,25,0.4,37.6c-0.4,3.8-1,7.6-1.5,11.4c-0.4,2.6-2,4.1-3.8,3.7C128.9,204.6,128,203.6,127.7,202.3L127.7,202.3z
				 M163.1,173c-0.3,39-9.9,74-28.9,105.1c-1.4,2.3-3.3,2.7-4.9,1.3c-0.5-0.4-0.8-1.1-1-1.7c1.4,0.7,2.9,0.1,4.1-1.8
				c19-30.9,28.6-66,28.9-105.1c0.1-10.7-1-21.2-2.3-31.8c-0.6-4.3-1.8-8.2-3.9-11.4c3.3,3.6,5.1,8.2,5.8,13.7
				C162.1,151.8,163.1,162.3,163.1,173z M170.2,33.1c14.3,5.9,26.6,15.4,36.8,28.6c-9.9-12-21.6-20.8-35-26.3
				c-1.2-0.4-2-1.3-2.4-2.5C169.8,32.9,170,33,170.2,33.1z M243.6,173.1c0,10.8-0.5,21.5-1.5,32.3c-0.1,0.6-0.1,1.4-0.3,2
				c-0.5,2-2.2,3.1-3.8,2.5c-1-0.3-1.8-1.3-2.2-2.4c0.1,0.1,0.2,0.1,0.4,0.2c1.6,0.5,3.3-0.5,3.8-2.5c0.2-0.6,0.2-1.3,0.3-2
				c1-10.8,1.6-21.4,1.5-32.3c0-11.6-0.6-23.1-1.8-34.5c-1-9.8-2.2-19.5-4.5-29c-4.8-20.1-12.8-37.2-23.9-51.2
				c12.1,14.5,20.7,32.3,25.7,53.4c2.3,9.5,3.5,19.2,4.5,29C243,150,243.6,161.6,243.6,173.1z"/>
			<path class="st0" d="M150.3,93.1c-0.1,2.5-1.5,3.9-3.8,3.8c-12.1-0.6-22.4,4.3-30.4,15.7c-7.9,11.4-10.8,24.7-8.4,39.7
				c1.4,9,1.9,18,1.4,27c-1.5,26.4-9.8,49-24.6,67.8c-1.3,1.6-2.6,3.1-3.9,4.5c-1.6,1.7-3.5,1.6-4.7-0.1c-0.3-0.4-0.5-0.8-0.6-1.3
				c1.1,0.5,2.4,0.3,3.5-1c1.4-1.5,2.7-3,3.9-4.5c14.9-18.8,23.2-41.4,24.6-67.8c0.5-9.1,0-18.1-1.4-27c-2.4-14.9,0.5-28.3,8.4-39.7
				c8-11.4,18.3-16.5,30.4-15.7c2.3,0.1,3.7-1.3,3.8-3.8c0-0.5,0-1.2-0.2-1.6C149.6,89.9,150.4,91.2,150.3,93.1L150.3,93.1z
				 M189.8,178.4c-0.8,34.9-8.2,67.3-22.2,97.5c-0.8,1.7-1.8,2.9-3.4,2.6c-1.3-0.1-2.3-1.2-2.7-2.5c0.3,0.1,0.6,0.2,0.9,0.2
				c1.6,0.2,2.6-1,3.4-2.6c13.9-30.2,21.3-62.6,22.2-97.5c0.4-14.9-0.7-29.7-2.9-44.4c-1.4-9.5-4.5-18.2-9.5-25.7
				c-0.6-1-1.3-1.9-2-2.7c1.3,1.6,2.6,3.2,3.8,5c5,7.5,8.1,16.1,9.5,25.7C189.1,148.7,190.2,163.5,189.8,178.4z M193.2,25.8
				c-1.1,1.1-2.3,1.2-3.5,0.4c-2.3-1.3-4.5-2.6-6.8-3.8c-12.2-6.2-24.9-9.3-38.1-9.5h-0.5c-12.3,0.1-24.3,2.6-35.9,8
				C89,29.9,73.1,44.6,60.7,65c-0.2,0.3-0.4,0.6-0.6,1c-1.3,2.2-3.2,2.7-4.8,1.3c-0.5-0.4-0.9-1.1-1-1.7c1.4,0.7,2.9,0.1,4-1.8
				c0.2-0.3,0.4-0.6,0.6-1c12.4-20.5,28.3-35.2,47.6-44c11.6-5.4,23.6-7.8,35.9-8h0.5c13.2,0.2,25.9,3.3,38.1,9.5
				c2.3,1.2,4.6,2.5,6.8,3.8c1.3,0.7,2.5,0.6,3.5-0.4s1.4-2.4,1.1-3.9c0-0.2-0.1-0.4-0.2-0.6c1,0.6,1.8,1.5,2,3
				C194.6,23.5,194.3,24.9,193.2,25.8z M216.7,168.3c0,33.7-4.1,61.7-12.3,88.8c-0.7,2.4-2,3.5-3.7,3.2c-1.3-0.2-2.1-1.2-2.5-2.5
				c0.2,0.1,0.4,0.2,0.7,0.2c1.6,0.3,2.9-0.8,3.7-3.2c8.2-27.1,12.3-55.2,12.3-88.8c0-7.2-0.7-19-2.1-30.8c-1.1-9-2.4-18-5.1-26.5
				c-2.1-6.7-4.8-12.9-8.1-18.7c0.5,0.3,1,1,1.5,1.7c3.4,6,6.2,12.5,8.4,19.2c2.7,8.6,4,17.5,5.1,26.5
				C216,149.3,216.8,161.2,216.7,168.3z M103.5,81.4C91.5,94,84,109.7,81.1,128.9c-1.5,10.1-1.3,20.4,0.4,30.5
				c0.7,4.4,0.9,9,1.2,11.8c-0.5,23.9-7.4,42.3-21,56.6c-1.2,1.3-2.4,1.7-3.8,0.8c-0.8-0.4-1.4-1.3-1.7-2.2c1.4,0.7,2.6,0.2,3.7-1
				c13.6-14.4,20.6-32.7,21-56.6c-0.3-2.9-0.5-7.4-1.2-11.8c-1.6-10.1-1.9-20.4-0.4-30.5c2.9-19.2,10.4-35.1,22.4-47.5
				c1.3-1.4,1.8-3.3,1.2-4.9c0.5,0.2,0.9,0.6,1.3,1.3C105.4,77.3,105.1,79.7,103.5,81.4z M149.7,171.6c-0.4,40.2-10.6,74-30.8,103.2
				c-1.4,2-3.3,2.3-4.7,0.7c-0.4-0.4-0.7-1-0.9-1.6c1.3,0.6,2.7,0.1,3.8-1.5c20.2-29.2,30.4-63.1,30.8-103.2
				c-0.2-3.8-0.3-9.2-0.8-14.7c-0.4-5.1-1.2-10-1.9-15c0-0.1,0-0.2-0.1-0.3c0.9,0.3,1.7,1.3,1.9,2.5c0.8,5,1.5,10,1.9,15
				C149.4,162.3,149.5,167.8,149.7,171.6L149.7,171.6z M254.6,145.5c0,2.5-1.3,4.2-3.2,4.2c-1.4,0-2.5-1-2.9-2.5
				c0.3,0.2,0.7,0.2,1.1,0.2c1.9,0,3.2-1.6,3.2-4.2c0-2.1,0-4.3,0-6.1c-0.3-8.7-1-17-2.5-25.2c-4.6-25.8-14-48.3-28.7-67
				c15.7,19.1,25.7,42.4,30.5,69.2c1.5,8.2,2.2,16.6,2.5,25.2C254.6,141.3,254.6,143.4,254.6,145.5L254.6,145.5z"/>
			<path class="st0" d="M159.7,120.9c-4.2-4.6-9.6-7.3-15.3-7.4c-11.2-0.2-21,9.3-23.5,23c-0.5,2.6-1.9,4-3.8,3.7
				c-1.2-0.2-2-1.2-2.4-2.4c0.2,0.1,0.4,0.2,0.6,0.2c1.9,0.4,3.3-1.1,3.8-3.7c2.5-13.6,12.3-23.2,23.5-23
				C149.3,111.4,155.4,115.1,159.7,120.9L159.7,120.9z M176.5,166.5c0,1.9,0,3.9,0,5.8c0,2.5-1.4,4.2-3.3,4.2c-1.4,0-2.4-1-2.9-2.5
				c0.3,0.2,0.7,0.2,1.1,0.2c1.9,0,3.2-1.7,3.3-4.2c0-1.9,0-3.9,0-5.8c-0.3-9.4-1.3-18.7-2.5-28.1c-1-8-3.5-15-7.8-20.8
				c5.4,6.2,8.4,14,9.6,23.1C175.2,147.7,176.2,157.1,176.5,166.5L176.5,166.5z M122.9,171.1c-0.5,34.9-9.8,63.4-28.3,87.2
				c-0.8,1-1.6,1.9-2.4,2.9c-1.6,1.9-3.5,2-4.9,0.2c-0.3-0.4-0.5-0.8-0.6-1.3c1.2,0.5,2.5,0.2,3.7-1.3c0.8-1,1.6-1.9,2.4-2.9
				c18.5-23.9,27.8-52.4,28.3-87.2c-0.2-3.6-0.6-8.9-1-14.3c0-0.4-0.1-0.7-0.2-1.1c1.1,0.4,1.9,1.7,2,3.4
				C122.3,162.2,122.6,167.5,122.9,171.1z M51.1,84.3c-2.7,6.8-5,13.7-6.8,20.9c-5,20.4-5.8,41.2-2.6,62.1c0.3,2.1,0.8,4.2,1.2,6.3
				c0.5,2.7-0.4,4.9-2.3,5.4c-1.6,0.5-2.9-0.4-3.6-2.3c0.6,0.2,1.2,0.3,1.8,0.1c1.9-0.5,2.8-2.6,2.3-5.4c-0.4-2.1-0.8-4.2-1.2-6.3
				c-3.2-21-2.4-41.7,2.6-62.1c1.8-7.2,4.1-14.2,6.8-20.9c0.5-1.3,0.6-2.6,0.3-3.7c0.2,0.1,0.3,0.2,0.5,0.3
				C51.6,79.8,52,82,51.1,84.3z M188.2,81.7c-1.2,0.8-2.5,0.6-3.8-0.4c-2.8-2.4-5.4-5.1-8.4-7.2c-18.9-13.2-38.4-14.4-58.3-3.8
				c-2.2,1.2-4.3,0.2-4.8-2c0.9,0.4,1.9,0.3,3-0.2c19.9-10.6,39.4-9.4,58.3,3.8c2.9,2,5.6,4.8,8.4,7.2c1.2,1.1,2.6,1.3,3.8,0.4
				c1.1-0.8,1.9-2.5,1.5-4.2c-0.1-0.5-0.3-1-0.6-1.4c0.2,0.2,0.4,0.4,0.7,0.6c0.8,0.7,1.4,1.9,1.7,3C190.1,79.2,189.3,81,188.2,81.7
				z M175.7,194.2c-1,6.7-1.8,13.3-3,20c-2.3,13.3-5.8,26-10.5,38.3c-3.5,9.2-7.4,18.1-12,26.4c-0.9,1.6-2,2.4-3.5,2
				c-1.2-0.3-2.1-1.1-2.3-2.4l0.5,0.2c1.6,0.4,2.7-0.4,3.5-2c4.6-8.3,8.6-17.2,12-26.4c4.6-12.3,8.2-25,10.5-38.3
				c1.2-6.7,2-13.3,3-20c0-0.6-0.2-1.4-0.4-1.9C174.8,190.6,175.6,192.2,175.7,194.2z M230.2,170c0.2,22.9-2.1,45.4-6.7,67.6
				c-0.4,1.9-1,3.4-2.7,3.7c-1.7,0.4-3-0.6-3.5-2.4c0.5,0.2,1.1,0.3,1.7,0.1c1.6-0.3,2.3-1.9,2.7-3.7c4.7-22.2,6.9-44.7,6.7-67.6
				c-0.1-4.2-0.2-8.5-0.4-12.7c0-0.5-0.1-1.1-0.3-1.5c1.2,0.5,2,1.9,2.1,3.8C230,161.6,230,165.8,230.2,170z M69.2,172
				c-0.4,17.2-5.2,30.8-14.9,41.8c-2.1,2.4-4.8,1.8-5.6-1c1.2,0.4,2.6,0.1,3.8-1.3c9.7-10.9,14.6-24.6,14.9-41.8
				c-0.2-2-0.4-4.9-0.6-7.7c-0.6-5.6-1.3-11.2-1.8-16.8c-0.1-0.7-0.2-1.4-0.4-1.9c1.3,0.5,2,2.1,2.2,4.2c0.5,5.6,1.2,11.2,1.8,16.8
				C68.8,167.1,69,170,69.2,172z M128.6,223.3c-1.8,5-3.5,9.9-5.5,14.8c-4.8,11.5-10.9,21.8-18.2,31.1c-1,1.4-2.3,1.8-3.7,1.2
				c-0.9-0.4-1.6-1.3-1.9-2.3c0,0,0,0,0.1,0c1.4,0.6,2.6,0.2,3.7-1.2c7.2-9.3,13.4-19.6,18.2-31.1c2-4.9,3.7-9.8,5.5-14.8
				c0.4-1.2,0.4-2.2,0.1-3.2C128.5,218.5,129.4,220.8,128.6,223.3z M91.2,204.7c-1.2,3.6-2.5,7.1-3.9,10.5
				c-4.1,9.5-9.6,17.7-16.2,24.8c-0.8,0.8-1.8,1.5-2.2,1.8c-2,0-3.1-1-3.6-2.4c0-0.1,0-0.1-0.1-0.2c0.5,0.2,1.1,0.3,1.9,0.3
				c0.5-0.3,1.4-1,2.2-1.8c6.6-7,12.1-15.2,16.2-24.8c1.5-3.4,2.7-7,3.9-10.5c0.4-1.1,0.4-2,0.1-2.9
				C91.1,200.2,91.9,202.5,91.2,204.7L91.2,204.7z M197.1,230.7c-1.8,7.3-3.6,14.6-5.7,21.7c-1.8,5.9-3.9,11.6-6,17.3
				c-0.7,1.9-2.1,2.6-3.6,2.2c-1.1-0.3-1.9-1.2-2.3-2.4c0.1,0.1,0.3,0.1,0.4,0.2c1.5,0.4,3-0.4,3.6-2.2c2-5.8,4.2-11.5,6-17.3
				c2.1-7.2,3.9-14.5,5.7-21.7c0.2-1,0.2-2.2-0.1-3.3c0.7,0.2,1.3,0.7,1.7,1.7C197.2,228,197.4,229.6,197.1,230.7z"/>
		</g>
	</g>
</g>
<g id="Layer_2">
	<path class="st1" d="M56.2,243.1c-1.5,1.5-3.5,1-4.5-1.3c0,0-20.1-45.4-29.7-66.4s-21.5-3.9-7.5,30.4l27.6,61.8
		c3.8,8.5,11.5,10.7,17,4.9c0,0,174.9-181.2,204.5-212c29.5-30.8,16.3-38.8,3.2-26S56.2,243.1,56.2,243.1z"/>
</g>
</svg>
