<?xml version="1.0" encoding="utf-8"?>
<!-- Generator: Adobe Illustrator 26.0.1, SVG Export Plug-In . SVG Version: 6.00 Build 0)  -->
<svg version="1.1" id="SvgjsSvg1028" xmlns:svgjs="http://svgjs.com/svgjs"
	 xmlns="http://www.w3.org/2000/svg" xmlns:xlink="http://www.w3.org/1999/xlink" x="0px" y="0px" viewBox="0 0 288 288"
	 style="enable-background:new 0 0 288 288;" xml:space="preserve">
<style type="text/css">
	.st0{fill:#C9C8CE;}
	.st1{fill:#386384;}
	.st2{fill:#2F4867;}
</style>
<g id="SvgjsG1030">
	<path class="st0" d="M146.3,45.4c24.5,0.7,45.3,11.3,61.9,32.6c11.2,14.3,17.9,31.3,20.7,50.4c0.4,3,0.9,6.1,1.2,9.1
		c0.3,2.6-1.5,4.5-3.6,4.2c-1.5-0.2-2.5-1.6-2.8-3.7c-0.9-5.8-1.7-11.7-2.9-17.4c-7.6-33.9-31.6-59.9-60.9-66.1
		C119.1,46,80,76.7,70.9,124.4c-0.3,1.5-0.5,3-0.8,4.5c-0.4,2.2-2.1,3.4-3.9,2.9c-1.6-0.4-2.7-2.4-2.4-4.4
		c2.7-18.2,9.2-34.2,19.5-48.1c6-8.1,12.9-15,20.8-20.4c10.8-7.4,22.4-11.8,34.9-13C141.5,45.7,143.9,45.6,146.3,45.4L146.3,45.4z"
		/>
	<path class="st0" d="M55.5,144.3c0,7.9,1.1,15.5,2.1,23.3c1.4,11.1-1.3,20.9-7.6,29.2c-1.3,1.7-3.2,1.8-4.6,0.3
		c-1.3-1.5-1.4-3.7-0.1-5.4c3.8-5,6.1-10.9,6.2-17.6c0.1-3.3-0.4-6.6-0.9-9.9c-4.2-30,0.6-57.8,14.8-83.2
		c13-23.2,30.9-38.7,53.5-46.6c13.1-4.6,26.5-5.8,40.1-3.7c2,0.3,3.3,2,3.1,4.2c-0.2,2.2-1.7,3.5-3.8,3.3c-4.8-0.3-9.6-1.1-14.4-0.8
		C112.8,39,88.2,55,70.6,85.6c-8.5,14.8-13.2,31.4-14.6,49.2C55.7,138,55.7,141.1,55.5,144.3L55.5,144.3z M165.4,172.8
		c-0.3,36.9-9.8,70.1-28.9,99.5c-1.4,2.2-3.3,2.6-4.9,1.1c-1.5-1.4-1.6-3.7-0.2-5.8c11.8-18,19.9-38.2,24.2-60.4
		c3.5-18.1,4.3-36.4,2.1-54.9c-0.4-3.6-0.9-7.2-1.5-10.8c-1-5.9-6.1-9.9-11.4-9.1c-5,0.8-9.1,6.4-8.7,12.2c0.2,2.8,0.8,5.6,1.2,8.4
		c1.6,11.8,1.8,23.7,0.4,35.6c-0.4,3.6-1,7.2-1.5,10.8c-0.4,2.5-2,3.9-3.8,3.4c-1.9-0.5-3-2.5-2.5-5c2.7-14.9,2.9-29.9,0.9-45
		c-0.3-2.1-0.8-4.1-1-6.2c-0.9-7.8,2.5-15.7,8.4-19.5c5.9-3.9,13.4-3.2,18.5,1.8c3.7,3.6,5.7,8.2,6.4,13.7
		C164.4,152.7,165.5,162.6,165.4,172.8L165.4,172.8z M245.9,172.9c0,10.2-0.5,20.4-1.5,30.6c-0.1,0.6-0.1,1.3-0.3,1.8
		c-0.5,1.9-2.2,2.9-3.8,2.4c-1.6-0.5-2.6-2.2-2.4-4.3c0.4-5.5,0.9-11,1.3-16.6c0.7-12.1,0.4-24.2-0.5-36.3
		c-0.8-10.6-2.1-21.1-4.2-31.4c-3.1-15.5-9.2-29.9-17.7-42.3c-11.3-16.4-25.5-27.9-42.4-34.5c-1.4-0.6-2.4-1.5-2.6-3.3
		c-0.4-2.9,1.9-5,4.4-4c7.1,2.7,13.8,6.2,20.1,10.8c21.7,15.7,36.1,37.9,43.4,66.7c2.3,9,3.5,18.2,4.5,27.5
		C245.3,151,245.9,161.9,245.9,172.9L245.9,172.9z"/>
	<path class="st0" d="M105.3,170.8c0-5.1-1.1-11.8-1.9-18.6c-2.2-18.4,2.6-34,14.3-46.4c8.9-9.4,19.5-13.4,31.5-12.7
		c2.2,0.1,3.6,1.7,3.5,4c-0.1,2.3-1.5,3.7-3.8,3.6c-12.1-0.6-22.4,4.1-30.4,15c-7.9,10.8-10.8,23.4-8.4,37.6
		c1.4,8.5,1.9,17,1.4,25.6c-1.5,25-9.8,46.4-24.6,64.2c-1.3,1.5-2.6,2.9-3.9,4.3c-1.5,1.6-3.5,1.5-4.7-0.1c-1.3-1.7-1.1-4,0.5-5.6
		c10-10.3,17.3-22.9,21.8-37.6C103.7,193.9,105.3,183.4,105.3,170.8L105.3,170.8z M185.8,172.7c0-12.5-1-24.9-3.2-37.2
		c-2.3-12.8-8.3-22.4-17.8-29.1c-1.3-0.9-2.2-2.1-2.1-3.9c0.2-2.9,2.7-4.4,4.9-2.9c4.6,3.1,8.8,7.1,12.2,12c5,7.1,8.1,15.2,9.5,24.3
		c2.2,13.9,3.3,27.9,2.9,42c-0.8,33-8.2,63.7-22.2,92.3c-0.8,1.6-1.8,2.7-3.4,2.5c-2.4-0.2-3.6-3.2-2.4-5.8
		c2.2-4.8,4.4-9.5,6.4-14.4c7.2-17.7,11.9-36.4,13.9-55.9c0.8-7.9,1.1-15.8,1.7-23.8L185.8,172.7L185.8,172.7z M146.6,21.3
		c-12.3,0.1-24.3,2.5-35.9,7.6c-19.3,8.4-35.2,22.3-47.6,41.7l-0.6,0.9c-1.3,2.1-3.2,2.5-4.8,1.2c-1.5-1.3-1.7-3.7-0.4-5.6
		c1.9-2.9,3.8-5.9,5.9-8.7c16.3-21.8,36.5-35.7,60.6-41.8c9-2.3,18.3-3.2,27.5-2.7c15.1,0.8,29.5,5.2,43.2,13
		c1.1,0.6,1.9,1.4,2.2,2.9c0.2,1.5-0.1,2.8-1.1,3.8c-1.1,1-2.3,1.1-3.6,0.4c-2.3-1.2-4.5-2.5-6.8-3.6c-12.2-5.9-25-8.8-38.1-9H146.6
		L146.6,21.3z M219.1,168.4c0,31.9-4.1,58.4-12.3,84.1c-0.7,2.3-2,3.3-3.7,3c-2.3-0.4-3.2-2.8-2.4-5.6c2.1-7.6,4.4-15.1,6.1-22.8
		c4.6-20.3,6.4-41,5.8-62c-0.4-14-1.7-28-4.8-41.6c-1.9-8.4-5.2-16.1-9.5-23.2c-1.3-2.2-1-4.6,0.8-5.9c1.5-1.1,3.2-0.6,4.5,1.4
		c3.4,5.6,6.2,11.8,8.4,18.2c2.7,8.1,4,16.6,5.1,25.1C218.4,150.4,219.1,161.6,219.1,168.4L219.1,168.4z M85,171.2
		c-0.5,22.6-7.4,40-21,53.6c-1.2,1.2-2.4,1.6-3.8,0.8c-1.3-0.7-2-2-1.7-3.6c0.2-1.1,0.8-2.3,1.5-3c6-5.9,10.7-12.9,13.9-21.3
		c4.6-11.9,5.5-24.2,3.6-37.1c-4.8-32.1,3.5-58.9,24.3-80.3c1.7-1.7,3.6-1.6,4.9,0.2c1.2,1.7,0.9,4-0.7,5.6
		c-12,11.9-19.5,26.8-22.4,45c-1.5,9.6-1.3,19.3,0.4,28.9C84.5,164.2,84.7,168.5,85,171.2L85,171.2z M152.1,171.4
		c-0.4,38-10.6,70.1-30.8,97.7c-1.4,1.9-3.3,2.2-4.7,0.7c-1.5-1.5-1.5-3.7-0.2-5.7l0.2-0.3c13.7-18.7,22.7-40.1,26.8-64.3
		c3-17.7,2.9-35.4,0-53.1c-0.5-3-0.1-4.3,1.6-5.3c1.7-1.1,4,0,4.4,2.2c0.8,4.7,1.5,9.5,1.9,14.2
		C151.8,162.7,151.9,167.8,152.1,171.4L152.1,171.4z M256.9,141c0,1.8,0,3.8,0,5.8c0,2.4-1.4,4-3.2,4c-1.9,0-3.2-1.6-3.1-4.1
		c0.1-7.9-0.4-15.8-1.6-23.6c-3.5-22-11.2-41.7-23.5-58.7c-5.4-7.5-11.6-14.1-18.4-19.9c-0.7-0.6-1.4-1.3-1.9-2.2
		c-0.8-1.5-0.4-3.3,0.7-4.5c1.1-1.2,2.8-1.4,4.1-0.2c4.1,3.9,8.4,7.6,12.2,11.8c16.7,18.5,27.4,41.2,32.3,67.7
		C255.9,124.9,256.6,132.8,256.9,141L256.9,141z"/>
	<path class="st0" d="M178.8,166.7c0,1.8,0,3.7,0,5.5c0,2.4-1.4,4-3.3,4c-1.8,0-3.1-1.6-3.1-4c-0.1-11.1-1-22.1-2.9-33
		c-2.2-13-11.6-22.4-22.8-22.7c-11.2-0.2-21,8.8-23.5,21.8c-0.5,2.5-2,3.8-3.8,3.5c-1.9-0.4-3-2.5-2.5-5.1c1.8-8.9,5.8-16,12.1-21.3
		c11.4-9.6,27.4-8.3,37.6,2.9c5.4,5.9,8.5,13.3,9.6,21.9C177.5,148.9,178.5,157.7,178.8,166.7L178.8,166.7z M125.2,170.9
		c-0.5,33-9.8,60-28.3,82.6c-0.8,0.9-1.6,1.8-2.4,2.7c-1.6,1.8-3.5,1.9-4.9,0.2c-1.3-1.6-1-3.8,0.4-5.7c3.5-4.6,7.2-8.9,10.4-13.8
		c9.9-15.5,15.7-33,17.6-52.3c0.9-8.7,0.8-17.4-0.2-26.1c-0.3-2.3,0.9-4.1,2.6-4.5c1.9-0.3,3.5,1,3.7,3.4
		C124.7,162.5,125,167.6,125.2,170.9z M35.7,140.7c0-17.2,4-36.7,11.9-55.1c1.1-2.6,3-3.4,4.8-2.1c1.5,1.1,1.9,3.2,1,5.3
		c-2.7,6.4-5,13-6.8,19.8c-5,19.4-5.8,39-2.6,58.9c0.3,2,0.8,4,1.2,6.1c0.5,2.6-0.4,4.5-2.3,5.1c-1.9,0.5-3.4-0.8-4-3.3
		C36.8,165.1,35.7,154.7,35.7,140.7L35.7,140.7z M145,61.3c17.9,0.3,32.5,6.3,45.3,18.3c0.7,0.7,1.4,1.8,1.7,2.8
		c0.4,1.5-0.3,3.2-1.5,3.9c-1.2,0.8-2.5,0.6-3.8-0.4c-2.8-2.3-5.4-4.8-8.4-6.8c-18.9-12.5-38.4-13.6-58.3-3.6
		c-2.7,1.3-5.1-0.3-5-3.4c0.1-1.6,0.8-2.7,2-3.4c6.1-3.3,12.5-5.5,19.2-6.6C139.7,61.7,143.1,61.5,145,61.3z M178.1,192.9
		c-1,6.3-1.8,12.6-3,18.9c-2.3,12.6-5.9,24.6-10.5,36.3c-3.5,8.7-7.4,17-12,25c-0.9,1.5-2,2.3-3.5,1.9c-1.3-0.3-2.3-1.3-2.4-2.9
		c-0.1-1.2,0.3-2.5,0.8-3.5c2.9-6,6.1-11.7,8.8-17.8c7.3-16.5,12.1-34,14.5-52.5c0.3-2,0.5-4,0.7-6c0.2-2.2,1.7-3.8,3.5-3.6
		C176.7,188.9,177.9,190.6,178.1,192.9L178.1,192.9z M232.5,170c0.2,21.6-2.1,43.1-6.7,64c-0.4,1.8-1.1,3.2-2.7,3.5
		c-2.5,0.5-4.3-2-3.6-5.1c0.9-4.7,2.1-9.3,2.7-14.1c1.2-8.7,2.3-17.5,3.1-26.3c1-11.2,0.9-22.4,0.4-33.6c-0.1-2.3,1.1-4.1,2.9-4.2
		c1.9-0.2,3.4,1.4,3.5,3.8C232.3,162,232.4,166,232.5,170L232.5,170z M71.5,171.8c-0.4,16.3-5.2,29.2-14.9,39.6
		c-2.3,2.4-5.2,1.6-5.8-1.5c-0.3-1.6,0.2-2.9,1.3-4c6.4-6.6,10.5-14.9,12.2-24.8c1-6,0.8-12-0.1-18.1c-0.7-4.7-1.1-9.5-1.4-14.3
		c-0.2-2.6,1.2-4.3,3.1-4.4c1.9,0,3,1.7,3.3,4.2c0.5,5.3,1.2,10.6,1.8,15.9C71.2,167.2,71.4,169.9,71.5,171.8z M128.1,214.9
		c2.4,0,3.8,2.7,2.8,5.4c-1.7,4.7-3.5,9.4-5.5,14c-4.8,10.9-11,20.6-18.2,29.4c-1,1.3-2.3,1.7-3.7,1.1c-1.3-0.5-2.1-1.8-2-3.3
		c0.1-1.1,0.6-2.5,1.2-3.3c6.6-8.2,12.4-17.3,16.8-27.4c1.9-4.3,3.5-8.9,5.3-13.3C125.6,215.8,126.6,214.9,128.1,214.9z M71.1,237.9
		c-2,0-3.1-0.9-3.6-2.3c-0.6-1.6-0.2-3.1,0.9-4.4c2.7-3,5.5-6,7.9-9.2c4.8-6.4,8.5-13.7,11.1-21.6c0.6-2,1.8-2.9,3.2-2.8
		c2.4,0.2,3.8,2.6,2.9,5.2c-1.2,3.4-2.5,6.7-3.9,9.9c-4.1,9-9.6,16.8-16.2,23.5C72.5,237,71.5,237.5,71.1,237.9L71.1,237.9z
		 M181.6,262.6c0.1-0.3,0.2-1,0.4-1.6c4.7-11.5,8.5-23.5,11.3-35.8c0.4-1.6,1.2-2.8,2.6-3c1.4-0.3,2.7,0.2,3.2,1.7
		c0.4,1,0.6,2.5,0.3,3.6c-1.8,6.9-3.6,13.8-5.7,20.6c-1.8,5.6-3.9,11-6,16.4c-0.7,1.8-2.1,2.5-3.6,2.1
		C182.7,266.1,181.6,264.7,181.6,262.6L181.6,262.6z"/>
	<g>
		<path class="st1" d="M201,203.7c1.6-11.1,2.3-22.4,2.4-32.7c-0.1-15.1-1.3-29-3.6-42.8c-5.1-29.9-27.3-52.6-53.1-53.7
			c-19.1-0.8-35,7.5-47,25.1c-10.8,15.8-14.7,34.1-11.6,54.1c1.2,7.9,1.8,15.8,1.2,23.9c-0.2,2.4,1,4.3,2.8,4.4
			c2,0.2,3.4-1.2,3.6-3.7c0.6-7.9,0.5-15.8-0.9-23.6c-2-11-1.6-21.8,1.5-32.5c8.2-27.7,31.2-44.2,55.7-39.4
			c18.8,3.7,31.9,16.5,39.1,37.3c2.6,7.4,3.4,15.4,4.3,23.2c2.3,19.7,2,39.3-0.7,58.9c-0.3,2.4,0.8,4.3,2.7,4.7
			C199.1,207.5,200.6,206.1,201,203.7L201,203.7z"/>
		<path class="st1" d="M218.6,117.9c1.3,5.7,2,11.6,2.9,17.4c0.3,2.1,1.3,3.4,2.8,3.7c2.1,0.3,3.8-1.6,3.6-4.2
			c-0.3-3.1-0.8-6.1-1.2-9.1c-2.8-19.1-9.5-36.1-20.7-50.4c-16.7-21.3-37.4-31.9-61.9-32.6c-2.4,0.2-4.8,0.3-7.3,0.5
			c-12.5,1.2-24.1,5.6-34.9,13C93.9,61.6,87,68.4,81,76.6c-10.3,13.9-16.8,30-19.5,48.1c-0.3,2.1,0.7,4,2.4,4.4
			c1.8,0.5,3.5-0.7,3.9-2.9c0.3-1.5,0.5-3,0.8-4.5c9.1-47.8,48.3-78.5,89.2-69.9C187,58,211,83.9,218.6,117.9L218.6,117.9z"/>
		<path class="st1" d="M53.6,132c1.4-17.9,6.1-34.4,14.6-49.2c17.6-30.6,42.2-46.5,73.4-48.2c4.8-0.3,9.6,0.5,14.4,0.8
			c2.1,0.1,3.6-1.2,3.8-3.3c0.2-2.2-1.1-3.9-3.1-4.2c-34.9-5.3-71.9,11.6-93.6,50.3c-24.9,44.4-13.8,82.7-14,93.1
			c-0.1,6.7-2.4,12.6-6.2,17.6c-1.3,1.7-1.2,4,0.1,5.4c1.3,1.5,3.3,1.4,4.6-0.3C62.8,174,51.2,162.6,53.6,132L53.6,132z
			 M160.8,139.9c-0.7-5.5-2.7-10.2-6.4-13.7c-5.1-4.9-12.6-5.7-18.5-1.8c-5.9,3.9-9.3,11.8-8.4,19.5c0.2,2.1,0.7,4.2,1,6.2
			c2,15.1,1.8,30-0.9,45c-0.5,2.5,0.6,4.5,2.5,5c1.8,0.4,3.4-0.9,3.8-3.4c0.6-3.6,1.1-7.2,1.5-10.8c1.3-11.9,1.1-23.8-0.4-35.6
			c-0.4-2.8-1-5.6-1.2-8.4c-0.4-5.8,3.7-11.4,8.7-12.2c5.4-0.8,10.4,3.1,11.4,9.1c0.6,3.6,1.1,7.2,1.5,10.8
			c2.1,18.4,1.4,36.7-2.2,54.9c-4.3,22.2-12.4,42.3-24.2,60.4c-1.4,2.1-1.3,4.4,0.2,5.8c1.6,1.5,3.5,1,4.9-1.1
			c19-29.4,28.6-62.5,28.9-99.5C163.1,159.9,162.1,149.9,160.8,139.9L160.8,139.9z M237.3,109.9c-10-39.5-34.8-66.6-63.5-77.5
			c-2.5-0.9-4.8,1.2-4.4,4c0.2,1.7,1.2,2.7,2.6,3.3c31.5,12.3,53.1,42.2,60.1,76.7c6.8,33.3,5.1,62.4,3.4,84.2
			c-0.2,2.1,0.8,3.8,2.4,4.3c1.6,0.5,3.3-0.6,3.8-2.4c0.7-2.5,3.6-32.9,0-65.2C240.8,128.1,239.6,118.9,237.3,109.9z"/>
		<path class="st1" d="M107.7,150.4c-2.4-14.1,0.5-26.8,8.4-37.6c8-10.9,18.3-15.6,30.4-14.9c2.3,0.1,3.7-1.2,3.8-3.6
			c0.1-2.3-1.2-3.9-3.5-4c-11.9-0.7-22.6,3.2-31.5,12.7c-11.7,12.4-16.5,28-14.3,46.4c0.8,6.8,1.9,13.5,1.9,18.6
			c0,12.6-1.6,23.1-4.7,33.2c-4.6,14.7-11.9,27.3-21.8,37.6c-1.6,1.6-1.8,4-0.5,5.6c1.2,1.6,3.2,1.7,4.7,0.1
			c1.4-1.4,2.7-2.8,3.9-4.3c14.9-17.8,23.2-39.2,24.6-64.2C109.6,167.5,109.2,158.9,107.7,150.4L107.7,150.4z M186.9,133.1
			c-1.4-9-4.5-17.2-9.5-24.3c-3.4-4.8-7.5-8.9-12.2-12c-2.2-1.5-4.7,0.1-4.9,2.9c-0.1,1.9,0.8,3,2.1,3.9
			c9.5,6.6,15.5,16.3,17.8,29.1c2.2,12.3,3.2,24.7,3.2,37.2l0.3,0c-0.5,7.9-0.9,15.9-1.7,23.8c-2,19.5-6.7,38.2-13.8,55.9
			c-2,4.9-4.3,9.6-6.4,14.4c-1.2,2.6,0,5.6,2.4,5.8c1.6,0.1,2.6-0.9,3.4-2.5c13.9-28.6,21.3-59.3,22.2-92.3
			C190.2,161,189.1,147,186.9,133.1L186.9,133.1z M55.4,69.9c1.6,1.4,3.4,0.9,4.8-1.2c21.8-33.9,52.1-49.9,84.1-50.2h0.5
			c18.1,0.3,30.6,4.9,45,12.6c1.3,0.7,2.5,0.6,3.6-0.4c1.7-1.6,1.8-5-1.1-6.6c-13.7-7.8-28-12.2-43.2-13
			c-34.3-1.8-68.7,14.6-94,53.2C53.7,66.3,53.9,68.6,55.4,69.9L55.4,69.9z M209.5,111.4c-2.2-6.5-5-12.6-8.4-18.2
			c-1.2-2-2.9-2.5-4.5-1.4c-1.8,1.3-2.1,3.6-0.8,5.9c4.3,7.1,7.6,14.8,9.5,23.2c3.1,13.6,4.4,27.5,4.8,41.6c0.7,21-1.2,41.7-5.8,62
			c-1.8,7.7-4,15.2-6.1,22.8c-0.8,2.8,0.2,5.2,2.4,5.6c1.6,0.3,2.9-0.8,3.7-3c8.2-25.7,12.3-52.3,12.3-84.1c0-6.8-0.7-18-2.1-29.1
			C213.5,128,212.2,119.5,209.5,111.4L209.5,111.4z M82.6,168.4c-0.3-2.7-0.5-7-1.2-11.2c-1.6-9.6-1.9-19.2-0.4-28.9
			c2.8-18.2,10.4-33.2,22.4-45c1.6-1.6,1.9-3.9,0.7-5.6c-1.2-1.8-3.2-2-4.9-0.2c-20.8,21.4-29.1,48.2-24.3,80.3
			c1.9,12.9,1,25.2-3.6,37.1c-3.2,8.4-8,15.4-13.9,21.3c-0.7,0.7-1.3,1.9-1.5,3c-0.3,1.6,0.5,2.9,1.7,3.6c1.4,0.8,2.7,0.3,3.8-0.8
			C75.3,208.4,82.2,191,82.6,168.4L82.6,168.4z M148.9,154.8c-0.4-4.8-1.2-9.5-1.9-14.2c-0.4-2.2-2.7-3.3-4.4-2.2
			c-1.7,1-2,2.4-1.6,5.3c2.9,17.7,2.9,35.4,0,53.1c-4.1,24.3-13.1,45.7-26.8,64.3c-0.1,0.1-0.2,0.2-0.2,0.3c-1.4,2-1.3,4.2,0.2,5.7
			c1.4,1.4,3.4,1.2,4.7-0.7c20.2-27.6,30.4-59.7,30.8-97.7C149.5,165.1,149.4,159.9,148.9,154.8L148.9,154.8z M219.8,46.7
			c-3.8-4.2-8.1-7.9-12.2-11.8c-1.3-1.2-2.9-1-4.1,0.2c-1.1,1.1-1.5,3-0.7,4.5c1.4,2.8,9.4,7.2,20.2,22.1
			c16.8,23.1,25.4,52.1,25.1,82.3c0,2.4,1.3,4,3.1,4.1c1.9,0,3.2-1.5,3.3-4C255.1,109.9,243.9,73.4,219.8,46.7L219.8,46.7z"/>
		<path class="st1" d="M126.7,112.5c-6.3,5.3-10.4,12.4-12.1,21.3c-0.5,2.6,0.5,4.7,2.5,5.1c1.9,0.4,3.3-1,3.8-3.5
			c2.5-12.9,12.3-22,23.5-21.8c11.3,0.2,20.7,9.6,22.8,22.7c1.8,10.9,2.8,21.9,2.9,33c0,2.3,1.3,3.9,3.1,4c1.9,0,3.2-1.6,3.3-4
			c0-1.8,0-3.7,0-5.5c-0.3-8.9-1.3-17.8-2.5-26.6c-1.2-8.6-4.2-15.9-9.6-21.9C154.1,104.2,138.1,103,126.7,112.5L126.7,112.5z
			 M121.9,154.7c-0.2-2.4-1.8-3.7-3.7-3.4c-1.8,0.3-2.9,2.2-2.6,4.5c1,8.7,1.1,17.4,0.2,26.1c-1.9,19.3-7.7,36.8-17.6,52.3
			c-3.1,4.9-6.9,9.3-10.4,13.8c-1.4,1.9-1.7,4.1-0.4,5.7c1.3,1.7,3.2,1.6,4.9-0.2c0.8-0.9,1.6-1.8,2.4-2.7
			c18.5-22.6,27.8-49.6,28.3-82.6C122.6,164.8,122.3,159.8,121.9,154.7L121.9,154.7z M42.9,170.7c-5.6-29.1-3.7-56.8,8.2-84.7
			c0.9-2.1,0.5-4.2-1-5.3c-1.8-1.3-3.7-0.4-4.8,2.1c-12.3,28.7-15.1,59.7-8.7,89.7c0.5,2.5,2.1,3.9,4,3.3
			C42.5,175.3,43.4,173.3,42.9,170.7L42.9,170.7z M187.9,76.8c-12.8-12-27.4-18.1-45.3-18.3c-1.9,0.2-5.3,0.4-8.7,1
			c-6.7,1.1-13,3.3-19.2,6.6c-1.2,0.7-1.9,1.8-2,3.4c-0.1,3.1,2.3,4.7,5,3.4c19.9-9.9,39.4-8.9,58.3,3.6c2.9,1.9,5.6,4.5,8.4,6.8
			c1.2,1,2.6,1.2,3.8,0.4c1.1-0.8,1.9-2.4,1.5-3.9C189.3,78.6,188.7,77.6,187.9,76.8L187.9,76.8z M172.8,209c1.1-6.3,2-12.6,3-18.9
			c-0.2-2.4-1.3-4.1-3.2-4.3c-1.7-0.2-3.2,1.4-3.5,3.6c-0.2,2-0.4,4-0.7,6c-2.4,18.4-7.1,36-14.5,52.5c-2.7,6.1-5.9,11.8-8.8,17.8
			c-0.5,1-0.8,2.3-0.8,3.5c0.1,1.6,1.1,2.5,2.4,2.9c1.6,0.4,2.7-0.4,3.5-1.9c4.6-7.9,8.5-16.3,12-25
			C166.9,233.7,170.5,221.6,172.8,209L172.8,209z M226.2,151.4c-1.8,0.2-3,2-2.9,4.2c1,20.2,0.6,40.4-6.2,74
			c-0.6,3.1,1.1,5.6,3.6,5.1c1.6-0.3,2.3-1.8,2.7-3.5c4.6-20.9,6.9-42.4,6.7-64c-0.1-4-0.2-8-0.4-12
			C229.6,152.8,228.1,151.2,226.2,151.4L226.2,151.4z M69.2,169c-0.2-1.9-0.4-4.6-0.6-7.3c-0.6-5.3-1.2-10.6-1.8-15.9
			c-0.2-2.5-1.4-4.2-3.3-4.2c-1.9,0-3.3,1.8-3.1,4.4c0.4,4.8,0.7,9.6,1.4,14.3c0.9,6.1,1.2,12.1,0.1,18.1
			c-1.7,9.9-5.8,18.1-12.2,24.8c-1,1.1-1.6,2.3-1.3,4c0.6,3.1,3.5,3.9,5.8,1.5C64,198.3,68.8,185.3,69.2,169L69.2,169z M128.6,217.6
			c1-2.7-0.5-5.4-2.8-5.4c-1.5,0-2.5,0.9-3.1,2.7c-1.7,4.5-3.3,9-5.2,13.3c-4.5,10.1-10.2,19.1-16.8,27.4c-0.7,0.8-1.1,2.1-1.2,3.3
			c-0.1,1.5,0.7,2.8,2,3.3c1.4,0.6,2.6,0.2,3.7-1.1c7.2-8.8,13.4-18.6,18.2-29.4C125.1,227.1,126.8,222.3,128.6,217.6L128.6,217.6z
			 M87.2,209.9c1.5-3.2,2.7-6.6,3.9-9.9c0.9-2.6-0.5-5-2.9-5.2c-1.4-0.1-2.5,0.8-3.2,2.8c-2.6,7.9-6.3,15.2-11.1,21.6
			c-2.5,3.3-5.3,6.2-7.9,9.2c-1.2,1.3-1.5,2.8-0.9,4.4c0.5,1.4,1.6,2.3,3.6,2.3c0.5-0.3,1.4-0.9,2.2-1.7
			C77.6,226.8,83.1,219,87.2,209.9L87.2,209.9z M193.6,219.4c-1.4,0.3-2.2,1.4-2.6,3c-2.8,12.3-6.6,24.3-11.3,35.8
			c-0.2,0.6-0.3,1.3-0.4,1.6c0,2.1,1,3.6,2.5,4c1.5,0.4,3-0.4,3.6-2.1c2-5.4,4.2-10.8,6-16.4c2.1-6.8,3.9-13.7,5.7-20.6
			c0.3-1.1,0.1-2.5-0.3-3.6C196.3,219.6,195,219.1,193.6,219.4z"/>
	</g>
	<g>
		<path class="st2" d="M150.1,80.7c11.5,2.3,20.9,8,28.1,16.9c-6.9-7.7-15.7-12.6-26.3-14.7c-24.5-4.8-47.5,11.8-55.7,39.4
			c-3.1,10.7-3.5,21.5-1.5,32.5c1.4,7.8,1.5,15.7,0.9,23.6c-0.2,2.5-1.6,3.9-3.6,3.7c-1.2-0.1-2.2-1-2.6-2.4
			c0.2,0.1,0.5,0.2,0.8,0.2c1.9,0.2,3.4-1.2,3.6-3.7c0.6-7.9,0.6-15.8-0.9-23.6c-2-11-1.6-21.8,1.5-32.5
			C102.6,92.5,125.6,75.9,150.1,80.7z M203.3,171c-0.1,10.3-0.7,21.5-2.3,32.7c-0.4,2.4-1.9,3.8-3.7,3.5c-1.2-0.3-2.1-1.1-2.5-2.4
			c0.2,0.1,0.4,0.2,0.7,0.2c1.8,0.3,3.3-1,3.7-3.5c1.6-11.2,2.3-22.4,2.4-32.7c-0.1-15.1-1.3-29-3.6-42.8
			c-2.1-12.5-7.3-23.8-14.5-32.8c8.2,9.2,14,21.4,16.3,34.9C202.1,142,203.3,155.9,203.3,171L203.3,171z"/>
		<path class="st2" d="M155.9,49.7c16.2,3.4,30.9,13,41.9,26.5c-11-12.7-25-21.2-40.1-24.4c-40.9-8.6-80.1,22.1-89.2,69.9
			c-0.3,1.5-0.5,3-0.8,4.5c-0.4,2.2-2.1,3.4-3.9,2.9c-1-0.3-1.8-1.2-2.2-2.3c0.1,0.1,0.2,0.1,0.4,0.2c1.8,0.5,3.5-0.7,3.9-2.9
			c0.3-1.5,0.5-3,0.8-4.5C75.8,71.8,115,41.1,155.9,49.7L155.9,49.7z M224.3,139c-1.2-0.2-2-1-2.5-2.3c0.2,0.1,0.4,0.2,0.7,0.2
			c2.1,0.3,3.8-1.6,3.6-4.2c-0.3-3.1-0.8-6.1-1.2-9.1c-2.8-19.1-9.5-36.1-20.7-50.4c-0.5-0.7-1-1.3-1.6-2c1.2,1.3,2.3,2.7,3.4,4.1
			c11.2,14.3,17.9,31.3,20.7,50.4c0.4,3,0.9,6.1,1.2,9.1C228.2,137.4,226.4,139.3,224.3,139z"/>
		<path class="st2" d="M159.8,32.1c-0.2,2.2-1.7,3.5-3.8,3.4c-4.8-0.3-9.6-1.1-14.4-0.8c-31.2,1.7-55.8,17.6-73.4,48.2
			C59.7,97.6,55,114.2,53.6,132c-0.2,3.2-0.3,6.3-0.4,9.5c0,7.9,1.2,15.5,2.1,23.2c1.4,11.1-1.3,20.9-7.6,29.2
			c-1.3,1.7-3.3,1.8-4.6,0.3c-0.4-0.4-0.6-0.9-0.8-1.4c1.2,0.6,2.6,0.2,3.6-1c6.3-8.4,9.1-18.2,7.6-29.2c-1-7.7-2.1-15.4-2.1-23.2
			c0.1-3.2,0.2-6.4,0.4-9.5c1.4-17.9,6.1-34.4,14.7-49.2c17.5-30.6,42.2-46.5,73.4-48.2c4.8-0.2,9.6,0.5,14.4,0.8
			c2.1,0.1,3.6-1.2,3.8-3.4c0.1-0.6,0-1.2-0.2-1.7C159.2,28.9,159.9,30.3,159.8,32.1L159.8,32.1z M127.7,197.8
			c0.2,0.1,0.4,0.1,0.6,0.2c1.8,0.4,3.4-0.9,3.8-3.5c0.6-3.6,1.1-7.2,1.5-10.8c1.3-11.9,1.1-23.8-0.4-35.6c-0.4-2.8-1-5.6-1.2-8.4
			c-0.4-5.8,3.7-11.4,8.7-12.2c3.9-0.6,7.6,1.3,9.7,4.6c-2.1-1.9-5-2.9-7.9-2.4c-5,0.8-9.1,6.4-8.7,12.2c0.2,2.8,0.8,5.6,1.2,8.4
			c1.6,11.8,1.8,23.7,0.4,35.6c-0.4,3.6-1,7.2-1.5,10.8c-0.4,2.5-2,3.9-3.8,3.5C128.9,199.9,128,199,127.7,197.8L127.7,197.8z
			 M163.1,170c-0.3,36.9-9.9,70.1-28.9,99.5c-1.4,2.2-3.3,2.6-4.9,1.2c-0.5-0.4-0.8-1-1-1.6c1.4,0.7,2.9,0.1,4.1-1.7
			c19-29.3,28.6-62.5,28.9-99.5c0.1-10.1-1-20.1-2.3-30.1c-0.6-4.1-1.8-7.8-3.9-10.8c3.3,3.4,5.1,7.8,5.8,13
			C162.1,149.9,163.1,159.9,163.1,170z M170.2,37.6c14.3,5.6,26.6,14.6,36.8,27.1c-9.9-11.4-21.6-19.7-35-24.9
			c-1.2-0.4-2-1.2-2.4-2.4C169.8,37.4,170,37.5,170.2,37.6z M243.6,170.1c0,10.2-0.5,20.4-1.5,30.6c-0.1,0.6-0.1,1.3-0.3,1.9
			c-0.5,1.9-2.2,2.9-3.8,2.4c-1-0.3-1.8-1.2-2.2-2.3c0.1,0.1,0.2,0.1,0.4,0.2c1.6,0.5,3.3-0.5,3.8-2.4c0.2-0.6,0.2-1.2,0.3-1.9
			c1-10.2,1.6-20.3,1.5-30.6c0-11-0.6-21.9-1.8-32.7c-1-9.3-2.2-18.5-4.5-27.5c-4.8-19-12.8-35.2-23.9-48.5
			c12.1,13.7,20.7,30.6,25.7,50.6c2.3,9,3.5,18.2,4.5,27.5C243,148.2,243.6,159.2,243.6,170.1z"/>
		<path class="st2" d="M150.3,94.4c-0.1,2.4-1.5,3.7-3.8,3.6c-12.1-0.6-22.4,4.1-30.4,14.9c-7.9,10.8-10.8,23.4-8.4,37.6
			c1.4,8.5,1.9,17,1.4,25.6c-1.5,25-9.8,46.4-24.6,64.2c-1.3,1.5-2.6,2.9-3.9,4.3c-1.6,1.6-3.5,1.5-4.7-0.1
			c-0.3-0.4-0.5-0.8-0.6-1.2c1.1,0.5,2.4,0.3,3.5-0.9c1.4-1.4,2.7-2.8,3.9-4.3c14.9-17.8,23.2-39.2,24.6-64.2
			c0.5-8.6,0-17.1-1.4-25.6c-2.4-14.1,0.5-26.8,8.4-37.6c8-10.8,18.3-15.6,30.4-14.9c2.3,0.1,3.7-1.2,3.8-3.6c0-0.5,0-1.1-0.2-1.5
			C149.6,91.3,150.4,92.6,150.3,94.4L150.3,94.4z M189.8,175.1c-0.8,33-8.2,63.7-22.2,92.3c-0.8,1.6-1.8,2.7-3.4,2.5
			c-1.3-0.1-2.3-1.1-2.7-2.4c0.3,0.1,0.6,0.2,0.9,0.2c1.6,0.2,2.6-0.9,3.4-2.5c13.9-28.6,21.3-59.3,22.2-92.3
			c0.4-14.1-0.7-28.1-2.9-42c-1.4-9-4.5-17.2-9.5-24.3c-0.6-0.9-1.3-1.8-2-2.6c1.3,1.5,2.6,3,3.8,4.7c5,7.1,8.1,15.2,9.5,24.3
			C189.1,147,190.2,161,189.8,175.1z M193.2,30.7c-1.1,1-2.3,1.1-3.5,0.4c-2.3-1.2-4.5-2.5-6.8-3.6c-12.2-5.9-24.9-8.8-38.1-9h-0.5
			c-12.3,0.1-24.3,2.5-35.9,7.6C89,34.5,73.1,48.5,60.7,67.8c-0.2,0.3-0.4,0.6-0.6,0.9c-1.3,2.1-3.2,2.6-4.8,1.2
			c-0.5-0.4-0.9-1-1-1.6c1.4,0.7,2.9,0.1,4-1.7c0.2-0.3,0.4-0.6,0.6-0.9C71.3,46.3,87.2,32.4,106.5,24c11.6-5.1,23.6-7.4,35.9-7.6
			h0.5c13.2,0.2,25.9,3.1,38.1,9c2.3,1.1,4.6,2.4,6.8,3.6c1.3,0.7,2.5,0.6,3.5-0.4c1-1,1.4-2.3,1.1-3.7c0-0.2-0.1-0.4-0.2-0.6
			c1,0.6,1.8,1.4,2,2.8C194.6,28.5,194.3,29.8,193.2,30.7z M216.7,165.6c0,31.9-4.1,58.4-12.3,84.1c-0.7,2.3-2,3.3-3.7,3
			c-1.3-0.2-2.1-1.1-2.5-2.4c0.2,0.1,0.4,0.2,0.7,0.2c1.6,0.3,2.9-0.8,3.7-3c8.2-25.7,12.3-52.3,12.3-84.1c0-6.8-0.7-18-2.1-29.2
			c-1.1-8.5-2.4-17-5.1-25.1c-2.1-6.3-4.8-12.2-8.1-17.7c0.5,0.3,1,0.9,1.5,1.6c3.4,5.7,6.2,11.8,8.4,18.2c2.7,8.1,4,16.6,5.1,25.1
			C216,147.6,216.8,158.8,216.7,165.6z M103.5,83.3c-12,11.9-19.5,26.8-22.4,45c-1.5,9.6-1.3,19.3,0.4,28.9
			c0.7,4.2,0.9,8.5,1.2,11.2c-0.5,22.6-7.4,40-21,53.6c-1.2,1.2-2.4,1.6-3.8,0.8c-0.8-0.4-1.4-1.2-1.7-2.1c1.4,0.7,2.6,0.2,3.7-0.9
			c13.6-13.6,20.6-31,21-53.6c-0.3-2.7-0.5-7-1.2-11.2c-1.6-9.6-1.9-19.3-0.4-28.9c2.9-18.2,10.4-33.2,22.4-45
			c1.3-1.3,1.8-3.1,1.2-4.6c0.5,0.2,0.9,0.6,1.3,1.2C105.4,79.4,105.1,81.7,103.5,83.3z M149.7,168.7c-0.4,38.1-10.6,70.1-30.8,97.7
			c-1.4,1.9-3.3,2.2-4.7,0.7c-0.4-0.4-0.7-0.9-0.9-1.5c1.3,0.6,2.7,0.1,3.8-1.4c20.2-27.6,30.4-59.7,30.8-97.7
			c-0.2-3.6-0.3-8.7-0.8-13.9c-0.4-4.8-1.2-9.5-1.9-14.2c0-0.1,0-0.2-0.1-0.3c0.9,0.3,1.7,1.2,1.9,2.4c0.8,4.7,1.5,9.5,1.9,14.2
			C149.4,159.9,149.5,165.1,149.7,168.7L149.7,168.7z M254.6,144c0,2.4-1.3,4-3.2,4c-1.4,0-2.5-0.9-2.9-2.4c0.3,0.2,0.7,0.2,1.1,0.2
			c1.9,0,3.2-1.5,3.2-4c0-2,0-4.1,0-5.8c-0.3-8.2-1-16.1-2.5-23.9c-4.6-24.4-14-45.7-28.7-63.4c15.7,18.1,25.7,40.1,30.5,65.5
			c1.5,7.8,2.2,15.7,2.5,23.9C254.6,140,254.6,142,254.6,144L254.6,144z"/>
		<path class="st2" d="M159.7,120.7c-4.2-4.4-9.6-6.9-15.3-7c-11.2-0.2-21,8.8-23.5,21.8c-0.5,2.5-1.9,3.8-3.8,3.5
			c-1.2-0.2-2-1.1-2.4-2.3c0.2,0.1,0.4,0.2,0.6,0.2c1.9,0.4,3.3-1,3.8-3.5c2.5-12.9,12.3-22,23.5-21.8
			C149.3,111.7,155.4,115.2,159.7,120.7L159.7,120.7z M176.5,163.9c0,1.8,0,3.7,0,5.5c0,2.4-1.4,4-3.3,4c-1.4,0-2.4-0.9-2.9-2.4
			c0.3,0.2,0.7,0.2,1.1,0.2c1.9,0,3.2-1.6,3.3-4c0-1.8,0-3.7,0-5.5c-0.3-8.9-1.3-17.7-2.5-26.6c-1-7.6-3.5-14.2-7.8-19.7
			c5.4,5.9,8.4,13.3,9.6,21.9C175.2,146.1,176.2,155,176.5,163.9L176.5,163.9z M122.9,168.2c-0.5,33-9.8,60-28.3,82.6
			c-0.8,0.9-1.6,1.8-2.4,2.7c-1.6,1.8-3.5,1.9-4.9,0.2c-0.3-0.4-0.5-0.8-0.6-1.2c1.2,0.5,2.5,0.2,3.7-1.2c0.8-0.9,1.6-1.8,2.4-2.7
			c18.5-22.6,27.8-49.6,28.3-82.6c-0.2-3.4-0.6-8.4-1-13.5c0-0.4-0.1-0.7-0.2-1c1.1,0.4,1.9,1.6,2,3.2
			C122.3,159.8,122.6,164.8,122.9,168.2z M51.1,86c-2.7,6.4-5,13-6.8,19.8c-5,19.3-5.8,39-2.6,58.8c0.3,2,0.8,4,1.2,6
			c0.5,2.6-0.4,4.6-2.3,5.1c-1.6,0.5-2.9-0.4-3.6-2.2c0.6,0.2,1.2,0.3,1.8,0.1c1.9-0.5,2.8-2.5,2.3-5.1c-0.4-2-0.8-4-1.2-6
			c-3.2-19.9-2.4-39.5,2.6-58.8c1.8-6.8,4.1-13.4,6.8-19.8c0.5-1.2,0.6-2.5,0.3-3.5c0.2,0.1,0.3,0.2,0.5,0.3
			C51.6,81.8,52,83.9,51.1,86z M188.2,83.6c-1.2,0.8-2.5,0.6-3.8-0.4c-2.8-2.3-5.4-4.8-8.4-6.8c-18.9-12.5-38.4-13.6-58.3-3.6
			c-2.2,1.1-4.3,0.2-4.8-1.9c0.9,0.4,1.9,0.3,3-0.2c19.9-10,39.4-8.9,58.3,3.6c2.9,1.9,5.6,4.5,8.4,6.8c1.2,1,2.6,1.2,3.8,0.4
			c1.1-0.8,1.9-2.4,1.5-4c-0.1-0.5-0.3-0.9-0.6-1.3c0.2,0.2,0.4,0.4,0.7,0.6c0.8,0.7,1.4,1.8,1.7,2.8
			C190.1,81.2,189.3,82.9,188.2,83.6z M175.7,190.1c-1,6.3-1.8,12.6-3,18.9c-2.3,12.6-5.8,24.6-10.5,36.3c-3.5,8.7-7.4,17.1-12,25
			c-0.9,1.5-2,2.3-3.5,1.9c-1.2-0.3-2.1-1-2.3-2.3l0.5,0.2c1.6,0.4,2.7-0.4,3.5-1.9c4.6-7.9,8.6-16.3,12-25
			c4.6-11.6,8.2-23.7,10.5-36.3c1.2-6.3,2-12.6,3-18.9c0-0.6-0.2-1.3-0.4-1.8C174.8,186.7,175.6,188.2,175.7,190.1z M230.2,167.2
			c0.2,21.7-2.1,43-6.7,64c-0.4,1.8-1,3.2-2.7,3.5c-1.7,0.4-3-0.6-3.5-2.3c0.5,0.2,1.1,0.3,1.7,0.1c1.6-0.3,2.3-1.8,2.7-3.5
			c4.7-21,6.9-42.3,6.7-64c-0.1-4-0.2-8-0.4-12c0-0.5-0.1-1-0.3-1.4c1.2,0.5,2,1.8,2.1,3.6C230,159.2,230,163.2,230.2,167.2z
			 M69.2,169.1c-0.4,16.3-5.2,29.2-14.9,39.6c-2.1,2.3-4.8,1.7-5.6-0.9c1.2,0.4,2.6,0.1,3.8-1.2c9.7-10.3,14.6-23.3,14.9-39.6
			c-0.2-1.9-0.4-4.6-0.6-7.3c-0.6-5.3-1.3-10.6-1.8-15.9c-0.1-0.7-0.2-1.3-0.4-1.8c1.3,0.5,2,2,2.2,4c0.5,5.3,1.2,10.6,1.8,15.9
			C68.8,164.4,69,167.2,69.2,169.1z M128.6,217.6c-1.8,4.7-3.5,9.4-5.5,14c-4.8,10.9-10.9,20.6-18.2,29.4c-1,1.3-2.3,1.7-3.7,1.1
			c-0.9-0.4-1.6-1.2-1.9-2.2c0,0,0,0,0.1,0c1.4,0.6,2.6,0.2,3.7-1.1c7.2-8.8,13.4-18.6,18.2-29.4c2-4.6,3.7-9.3,5.5-14
			c0.4-1.1,0.4-2.1,0.1-3C128.5,213.1,129.4,215.3,128.6,217.6z M91.2,200c-1.2,3.4-2.5,6.7-3.9,9.9c-4.1,9-9.6,16.8-16.2,23.5
			c-0.8,0.8-1.8,1.4-2.2,1.7c-2,0-3.1-0.9-3.6-2.3c0-0.1,0-0.1-0.1-0.2c0.5,0.2,1.1,0.3,1.9,0.3c0.5-0.3,1.4-0.9,2.2-1.7
			c6.6-6.6,12.1-14.4,16.2-23.5c1.5-3.2,2.7-6.6,3.9-9.9c0.4-1,0.4-1.9,0.1-2.7C91.1,195.8,91.9,197.9,91.2,200L91.2,200z
			 M197.1,224.6c-1.8,6.9-3.6,13.8-5.7,20.5c-1.8,5.6-3.9,11-6,16.4c-0.7,1.8-2.1,2.5-3.6,2.1c-1.1-0.3-1.9-1.1-2.3-2.3
			c0.1,0.1,0.3,0.1,0.4,0.2c1.5,0.4,3-0.4,3.6-2.1c2-5.5,4.2-10.9,6-16.4c2.1-6.8,3.9-13.7,5.7-20.5c0.2-0.9,0.2-2.1-0.1-3.1
			c0.7,0.2,1.3,0.7,1.7,1.6C197.2,222.1,197.4,223.6,197.1,224.6z"/>
	</g>
</g>
</svg>
